# xmcd CD database file
#
# Track frame offsets:
#	150
#	13804
#	27537
#	39340
#	49334
#	61294
#	75373
#	86179
#	100591
#	112993
#	125578
#	139829
#	155126
#	169768
#	182377
#	196099
#	209499
#	223924
#	238912
#
# Disc length: 3335 seconds
#
# Revision: 0
# Processed by: cddbd v1.5.2PL0 Copyright (c) Steve Scherf et al.
# Submitted via: CDex 1.70beta2
#
DISCID=0d0d0513
DTITLE=Holiday - Giants of Jazz 2
DYEAR=1900
DGENRE=Jazz
TTITLE0=Foolin' Myself - Teddy Wilson and His Orchestra
TTITLE1=Easy Living - Teddy Wilson and His Orchestra
TTITLE2=Me Myself and I - Billie Holiday and Her Orchestra
TTITLE3=Trav'lin' All Alone - Billie Holiday and Her Orchestra
TTITLE4=He's Funny That Way - Billie Holiday and Her Orchestra
TTITLE5=Nice Work If You Can Get It - Teddy Wilson and His Orchestra
TTITLE6=When A Woman Loves A Man - Billy Holiday and Her Orchestra
TTITLE7=Any Old Time - Artie Shaw and His Orchestra
TTITLE8=The Very Thought Of You - Billie Holiday and Her Orchestra 
TTITLE9=I Can't Get Started - Billie Holiday and His Orchestra
TTITLE10=Strange Fruit - Billie Holiday and Her Orchestra
TTITLE11=Yesterdays - Billie Holiday and Her Orchestra
TTITLE12=Fine and Mellow - Billie Holiday and Her Orchestra
TTITLE13=Them There Eyes - Billie Holiday and Her Orchestra
TTITLE14=The Man I Love - Billie Holiday and Her Orchestra
TTITLE15=God Bless The Child - Billy Holiday and Her Orchestra
TTITLE16=Trav'lin' Light - Paul Whiteman and His Orchestra
TTITLE17=Lover Man - Toots Camarata and His Orchestra
TTITLE18=Big Stuff-Billie Holiday and Her Orchestra
EXTD=
EXTT0=
EXTT1=
EXTT2=
EXTT3=
EXTT4=
EXTT5=
EXTT6=
EXTT7=
EXTT8=
EXTT9=
EXTT10=
EXTT11=
EXTT12=
EXTT13=
EXTT14=
EXTT15=
EXTT16=
EXTT17=
EXTT18=
PLAYORDER=
